<mxfile host="app.diagrams.net" agent="Mozilla/5.0 (Windows NT 10.0; Win64; x64) AppleWebKit/537.36 (KHTML, like Gecko) Chrome/131.0.0.0 Safari/537.36 Edg/131.0.0.0" version="25.0.3">
  <diagram name="PÃ¡gina-1" id="CWVS4EIJRuz1VnP0KnJJ">
    <mxGraphModel dx="1282" dy="661" grid="1" gridSize="10" guides="1" tooltips="1" connect="1" arrows="1" fold="1" page="1" pageScale="1" pageWidth="827" pageHeight="1169" math="0" shadow="0">
      <root>
        <mxCell id="0" />
        <mxCell id="1" parent="0" />
        <mxCell id="gXC3vSr-2lOf8VQ1cKvP-3" value="" style="rounded=0;whiteSpace=wrap;html=1;direction=south;fillColor=none;" parent="1" vertex="1">
          <mxGeometry x="40" y="120" width="160" height="300" as="geometry" />
        </mxCell>
        <mxCell id="gXC3vSr-2lOf8VQ1cKvP-4" value="" style="rounded=0;whiteSpace=wrap;html=1;fillColor=none;" parent="1" vertex="1">
          <mxGeometry x="200" y="270" width="430" height="150" as="geometry" />
        </mxCell>
        <mxCell id="gXC3vSr-2lOf8VQ1cKvP-1" value="" style="shape=cylinder3;whiteSpace=wrap;html=1;boundedLbl=1;backgroundOutline=1;size=15;" parent="1" vertex="1">
          <mxGeometry x="95" y="170" width="50" height="70" as="geometry" />
        </mxCell>
        <mxCell id="gXC3vSr-2lOf8VQ1cKvP-2" value="" style="shape=image;html=1;verticalAlign=top;verticalLabelPosition=bottom;labelBackgroundColor=#ffffff;imageAspect=0;aspect=fixed;image=https://cdn0.iconfinder.com/data/icons/octicons/1024/file-text-128.png" parent="1" vertex="1">
          <mxGeometry x="90" y="300" width="60" height="60" as="geometry" />
        </mxCell>
        <mxCell id="gXC3vSr-2lOf8VQ1cKvP-34" style="edgeStyle=orthogonalEdgeStyle;rounded=0;orthogonalLoop=1;jettySize=auto;html=1;exitX=0;exitY=0.5;exitDx=0;exitDy=0;entryX=0;entryY=0.5;entryDx=0;entryDy=0;" parent="1" source="gXC3vSr-2lOf8VQ1cKvP-5" target="gXC3vSr-2lOf8VQ1cKvP-10" edge="1">
          <mxGeometry relative="1" as="geometry" />
        </mxCell>
        <mxCell id="gXC3vSr-2lOf8VQ1cKvP-5" value="" style="rounded=0;whiteSpace=wrap;html=1;fillColor=none;" parent="1" vertex="1">
          <mxGeometry x="200" y="120" width="430" height="150" as="geometry" />
        </mxCell>
        <mxCell id="zrHZmNA32TrZqZwBBsou-1" style="edgeStyle=orthogonalEdgeStyle;rounded=0;orthogonalLoop=1;jettySize=auto;html=1;" edge="1" parent="1" source="gXC3vSr-2lOf8VQ1cKvP-6" target="gXC3vSr-2lOf8VQ1cKvP-7">
          <mxGeometry relative="1" as="geometry" />
        </mxCell>
        <mxCell id="gXC3vSr-2lOf8VQ1cKvP-6" value="Bronze" style="shape=cylinder3;whiteSpace=wrap;html=1;boundedLbl=1;backgroundOutline=1;size=15;flipV=0;" parent="1" vertex="1">
          <mxGeometry x="270" y="310" width="50" height="70" as="geometry" />
        </mxCell>
        <mxCell id="gXC3vSr-2lOf8VQ1cKvP-29" style="edgeStyle=orthogonalEdgeStyle;rounded=0;orthogonalLoop=1;jettySize=auto;html=1;" parent="1" source="gXC3vSr-2lOf8VQ1cKvP-7" target="gXC3vSr-2lOf8VQ1cKvP-28" edge="1">
          <mxGeometry relative="1" as="geometry" />
        </mxCell>
        <mxCell id="gXC3vSr-2lOf8VQ1cKvP-7" value="Silver" style="shape=cylinder3;whiteSpace=wrap;html=1;boundedLbl=1;backgroundOutline=1;size=15;flipV=0;" parent="1" vertex="1">
          <mxGeometry x="390" y="310" width="50" height="70" as="geometry" />
        </mxCell>
        <mxCell id="gXC3vSr-2lOf8VQ1cKvP-9" value="" style="rounded=0;whiteSpace=wrap;html=1;direction=south;fillColor=none;" parent="1" vertex="1">
          <mxGeometry x="630" y="120" width="160" height="300" as="geometry" />
        </mxCell>
        <mxCell id="gXC3vSr-2lOf8VQ1cKvP-20" style="edgeStyle=orthogonalEdgeStyle;rounded=0;orthogonalLoop=1;jettySize=auto;html=1;entryX=0;entryY=0.5;entryDx=0;entryDy=0;" parent="1" source="gXC3vSr-2lOf8VQ1cKvP-8" target="gXC3vSr-2lOf8VQ1cKvP-12" edge="1">
          <mxGeometry relative="1" as="geometry" />
        </mxCell>
        <mxCell id="gXC3vSr-2lOf8VQ1cKvP-21" style="edgeStyle=orthogonalEdgeStyle;rounded=0;orthogonalLoop=1;jettySize=auto;html=1;entryX=0;entryY=0.5;entryDx=0;entryDy=0;" parent="1" source="gXC3vSr-2lOf8VQ1cKvP-8" target="gXC3vSr-2lOf8VQ1cKvP-14" edge="1">
          <mxGeometry relative="1" as="geometry" />
        </mxCell>
        <mxCell id="gXC3vSr-2lOf8VQ1cKvP-8" value="" style="shape=cylinder3;whiteSpace=wrap;html=1;boundedLbl=1;backgroundOutline=1;size=15;flipV=0;" parent="1" vertex="1">
          <mxGeometry x="685" y="235" width="50" height="70" as="geometry" />
        </mxCell>
        <mxCell id="gXC3vSr-2lOf8VQ1cKvP-19" style="edgeStyle=orthogonalEdgeStyle;rounded=0;orthogonalLoop=1;jettySize=auto;html=1;" parent="1" source="gXC3vSr-2lOf8VQ1cKvP-10" target="gXC3vSr-2lOf8VQ1cKvP-8" edge="1">
          <mxGeometry relative="1" as="geometry" />
        </mxCell>
        <mxCell id="gXC3vSr-2lOf8VQ1cKvP-10" value="Stream processing" style="rounded=0;whiteSpace=wrap;html=1;fillColor=none;" parent="1" vertex="1">
          <mxGeometry x="350" y="165" width="120" height="60" as="geometry" />
        </mxCell>
        <mxCell id="gXC3vSr-2lOf8VQ1cKvP-11" value="" style="rounded=0;whiteSpace=wrap;html=1;direction=south;fillColor=none;" parent="1" vertex="1">
          <mxGeometry x="790" y="120" width="160" height="300" as="geometry" />
        </mxCell>
        <mxCell id="gXC3vSr-2lOf8VQ1cKvP-22" value="" style="rounded=0;whiteSpace=wrap;html=1;fillColor=none;strokeColor=default;" parent="1" vertex="1">
          <mxGeometry x="40" y="420" width="910" height="100" as="geometry" />
        </mxCell>
        <mxCell id="gXC3vSr-2lOf8VQ1cKvP-12" value="Analytics" style="rounded=0;whiteSpace=wrap;html=1;fillColor=none;" parent="1" vertex="1">
          <mxGeometry x="810" y="165" width="120" height="60" as="geometry" />
        </mxCell>
        <mxCell id="gXC3vSr-2lOf8VQ1cKvP-14" value="Machine Learning" style="rounded=0;whiteSpace=wrap;html=1;fillColor=none;" parent="1" vertex="1">
          <mxGeometry x="810" y="290" width="120" height="60" as="geometry" />
        </mxCell>
        <mxCell id="gXC3vSr-2lOf8VQ1cKvP-24" value="Cost management" style="rounded=0;whiteSpace=wrap;html=1;" parent="1" vertex="1">
          <mxGeometry x="200" y="450" width="120" height="60" as="geometry" />
        </mxCell>
        <mxCell id="gXC3vSr-2lOf8VQ1cKvP-25" value="Monitoring" style="rounded=0;whiteSpace=wrap;html=1;" parent="1" vertex="1">
          <mxGeometry x="460" y="450" width="120" height="60" as="geometry" />
        </mxCell>
        <mxCell id="gXC3vSr-2lOf8VQ1cKvP-26" value="Key vault" style="rounded=0;whiteSpace=wrap;html=1;" parent="1" vertex="1">
          <mxGeometry x="707" y="450" width="120" height="60" as="geometry" />
        </mxCell>
        <mxCell id="gXC3vSr-2lOf8VQ1cKvP-28" value="Gold" style="shape=cylinder3;whiteSpace=wrap;html=1;boundedLbl=1;backgroundOutline=1;size=15;flipV=0;" parent="1" vertex="1">
          <mxGeometry x="520" y="310" width="50" height="70" as="geometry" />
        </mxCell>
        <mxCell id="gXC3vSr-2lOf8VQ1cKvP-30" style="edgeStyle=orthogonalEdgeStyle;rounded=0;orthogonalLoop=1;jettySize=auto;html=1;entryX=0.5;entryY=1;entryDx=0;entryDy=0;entryPerimeter=0;" parent="1" source="gXC3vSr-2lOf8VQ1cKvP-28" target="gXC3vSr-2lOf8VQ1cKvP-8" edge="1">
          <mxGeometry relative="1" as="geometry" />
        </mxCell>
        <mxCell id="gXC3vSr-2lOf8VQ1cKvP-35" style="edgeStyle=orthogonalEdgeStyle;rounded=0;orthogonalLoop=1;jettySize=auto;html=1;exitX=0;exitY=0.5;exitDx=0;exitDy=0;entryX=0;entryY=0.5;entryDx=0;entryDy=0;entryPerimeter=0;" parent="1" source="gXC3vSr-2lOf8VQ1cKvP-4" target="gXC3vSr-2lOf8VQ1cKvP-6" edge="1">
          <mxGeometry relative="1" as="geometry" />
        </mxCell>
        <mxCell id="gXC3vSr-2lOf8VQ1cKvP-37" value="Policies e governance" style="text;html=1;align=left;verticalAlign=middle;whiteSpace=wrap;rounded=0;fontStyle=1" parent="1" vertex="1">
          <mxGeometry x="50" y="420" width="160" height="30" as="geometry" />
        </mxCell>
        <mxCell id="gXC3vSr-2lOf8VQ1cKvP-38" value="Source" style="text;html=1;align=left;verticalAlign=middle;whiteSpace=wrap;rounded=0;fontStyle=1" parent="1" vertex="1">
          <mxGeometry x="50" y="120" width="160" height="30" as="geometry" />
        </mxCell>
        <mxCell id="gXC3vSr-2lOf8VQ1cKvP-39" value="Speed layer" style="text;html=1;align=left;verticalAlign=middle;whiteSpace=wrap;rounded=0;fontStyle=1" parent="1" vertex="1">
          <mxGeometry x="210" y="120" width="160" height="30" as="geometry" />
        </mxCell>
        <mxCell id="gXC3vSr-2lOf8VQ1cKvP-40" value="Batch layer" style="text;html=1;align=left;verticalAlign=middle;whiteSpace=wrap;rounded=0;fontStyle=1" parent="1" vertex="1">
          <mxGeometry x="210" y="270" width="160" height="30" as="geometry" />
        </mxCell>
        <mxCell id="gXC3vSr-2lOf8VQ1cKvP-41" value="Serving layer" style="text;html=1;align=left;verticalAlign=middle;whiteSpace=wrap;rounded=0;fontStyle=1" parent="1" vertex="1">
          <mxGeometry x="640" y="120" width="160" height="30" as="geometry" />
        </mxCell>
        <mxCell id="gXC3vSr-2lOf8VQ1cKvP-42" value="Analytics and reporting" style="text;html=1;align=left;verticalAlign=middle;whiteSpace=wrap;rounded=0;fontStyle=1" parent="1" vertex="1">
          <mxGeometry x="800" y="120" width="160" height="30" as="geometry" />
        </mxCell>
      </root>
    </mxGraphModel>
  </diagram>
</mxfile>
